<?xml version="1.0" encoding="utf-8"?>
<!-- Generator: Adobe Illustrator 16.0.0, SVG Export Plug-In . SVG Version: 6.00 Build 0)  -->
<!DOCTYPE svg PUBLIC "-//W3C//DTD SVG 1.1//EN" "http://www.w3.org/Graphics/SVG/1.1/DTD/svg11.dtd">
<svg version="1.1" id="Layer_1" xmlns="http://www.w3.org/2000/svg" xmlns:xlink="http://www.w3.org/1999/xlink" x="0px" y="0px"
	 width="800px" height="800px" viewBox="0 0 800 800" enable-background="new 0 0 800 800" xml:space="preserve">
<g>
	<title>Layer 1</title>
	<path id="svg_1" fill="#041C3F" d="M675.898,407.053v-8.208c0-64.812-52.729-117.539-117.537-117.539H418.936v-50.221
		c31.635-8.388,55.019-37.252,55.019-71.483c0-40.781-33.173-73.953-73.952-73.953c-40.778,0-73.956,33.172-73.956,73.953
		c0,34.231,23.386,63.096,55.018,71.483v50.221H241.639c-64.811,0-117.539,52.728-117.539,117.539v8.208
		c-45.9,8.871-80.675,49.352-80.675,97.797c0,48.51,34.849,89.015,80.819,97.831c3.067,62.094,54.55,111.671,117.395,111.671
		h316.723c62.843,0,114.323-49.577,117.392-111.671c45.971-8.816,80.822-49.321,80.822-97.831
		C756.575,456.402,721.801,415.924,675.898,407.053L675.898,407.053z M124.1,563.604c-24.803-8.013-42.797-31.314-42.797-58.755
		c0-27.434,17.994-50.734,42.797-58.75V563.604z M363.922,159.602c0-19.893,16.184-36.078,36.078-36.078
		c19.893,0,36.078,16.186,36.078,36.078S419.893,195.68,400,195.68C380.105,195.68,363.922,179.493,363.922,159.602z
		 M638.026,596.813L638.026,596.813c-0.001,43.928-35.74,79.661-79.665,79.661H241.639c-43.928,0-79.664-35.733-79.664-79.661
		V398.845c0-43.925,35.736-79.661,79.664-79.661h316.723c43.925,0,79.664,35.736,79.664,79.661V596.813z M675.898,563.604V446.1
		c24.802,8.016,42.799,31.316,42.799,58.75C718.697,532.288,700.7,555.592,675.898,563.604z"/>
	<path id="svg_2" fill="#28A745" d="M538.119,400.611c-30.806,0-55.865,25.063-55.865,55.864c0,30.807,25.062,55.866,55.865,55.866
		s55.867-25.062,55.867-55.866C593.986,425.675,568.923,400.611,538.119,400.611z M538.119,474.466
		c-9.92,0-17.99-8.064-17.99-17.988c0-9.92,8.07-17.992,17.99-17.992c9.921,0,17.992,8.072,17.992,17.992
		C556.111,466.399,548.04,474.466,538.119,474.466z"/>
	<path id="svg_3" fill="#28A745" d="M261.881,400.611c-30.807,0-55.866,25.063-55.866,55.864c0,30.807,25.06,55.866,55.866,55.866
		c30.803,0,55.866-25.062,55.866-55.866C317.747,425.675,292.684,400.611,261.881,400.611z M261.881,474.466
		c-9.92,0-17.991-8.064-17.991-17.988c0-9.92,8.071-17.992,17.991-17.992c9.919,0,17.991,8.072,17.991,17.992
		C279.872,466.399,271.8,474.466,261.881,474.466z"/>
	<path fill="#041C3F" d="M467,560c0,37.003-29.997,67-67,67s-67-29.997-67-67"/>
</g>
</svg>
